<svg version="1.1" id="Layer_1" xmlns="http://www.w3.org/2000/svg" xmlns:xlink="http://www.w3.org/1999/xlink" x="0px" y="0px"
	 width="100%" viewBox="0 0 231 238" enable-background="new 0 0 231 238" xml:space="preserve">
<path fill="#010101" opacity="1.000000" stroke="none" 
	d="
M106.000000,239.000000 
	C70.666672,239.000000 35.833336,239.000000 1.000005,239.000000 
	C1.000003,159.666672 1.000003,80.333344 1.000002,1.000015 
	C77.999992,1.000010 154.999985,1.000010 231.999969,1.000005 
	C231.999985,80.333321 231.999985,159.666641 232.000000,238.999969 
	C190.166672,239.000000 148.333328,239.000000 106.000000,239.000000 
M113.301895,104.928177 
	C110.377068,97.875046 109.479408,90.541519 109.866158,82.936607 
	C110.136627,77.618210 109.892632,72.274643 109.920036,66.942528 
	C109.937660,63.513187 108.658043,61.700237 104.856018,61.890263 
	C100.201904,62.122875 95.522629,62.073223 90.863220,61.901699 
	C87.724625,61.786156 86.122711,62.960121 86.158669,66.146873 
	C86.336121,81.872086 84.256157,97.847397 92.253342,112.615028 
	C94.616318,116.978516 96.330162,121.751442 97.857635,126.492622 
	C99.283707,130.919037 101.899864,132.515518 106.423706,132.081070 
	C109.891022,131.748093 113.415947,132.015244 116.915253,132.015244 
	C133.597427,132.015289 132.750168,131.599457 140.014389,116.797852 
	C147.963150,100.601372 148.096939,83.772385 147.692108,66.586807 
	C147.614838,63.305672 146.390564,61.713974 142.870773,61.894833 
	C138.715927,62.108330 134.524231,62.181950 130.380661,61.878036 
	C126.077332,61.562405 124.386353,62.993656 124.566780,67.481651 
	C124.867760,74.968048 125.423515,82.580284 124.426750,89.943901 
	C123.460037,97.085556 120.707077,103.990936 118.617973,110.963936 
	C118.463257,111.480354 117.335510,111.705261 116.175240,112.324455 
	C115.230591,109.907326 114.402527,107.788513 113.301895,104.928177 
M95.416725,172.049072 
	C97.192291,172.049072 98.967865,172.049072 100.909882,172.049072 
	C101.381058,162.290588 101.751419,153.303543 97.775696,144.562454 
	C93.061607,134.198013 96.469017,135.796783 84.808464,135.811172 
	C74.416405,135.824005 77.410019,134.088165 72.980858,143.977783 
	C68.951294,152.975159 68.695061,162.182739 69.635033,171.614792 
	C73.623726,171.614792 77.170891,171.614792 80.830589,171.614792 
	C81.092789,168.637985 81.317833,166.083069 81.570694,163.212219 
	C84.325996,163.334702 86.531281,163.432724 88.736748,163.530762 
	C89.600792,167.536102 87.163399,173.383743 95.416725,172.049072 
M132.028534,137.021133 
	C123.736427,136.448456 115.444328,135.875778 107.278816,135.311829 
	C107.278816,148.381851 107.278816,160.082581 107.278816,171.641022 
	C111.307030,171.641022 114.864120,171.641022 118.634941,171.641022 
	C118.831551,168.341232 119.005219,165.426498 119.208832,162.009155 
	C122.122482,162.009155 124.915932,162.585587 127.314438,161.858749 
	C130.118088,161.009109 133.392456,159.619461 135.014145,157.403885 
	C138.265778,152.961472 136.521683,141.611954 132.028534,137.021133 
M165.483566,143.904602 
	C165.483566,141.324722 165.483566,138.744858 165.483566,136.158539 
	C156.602371,136.158539 148.400101,136.158539 140.249222,136.158539 
	C139.385986,144.852951 139.385986,144.852951 146.245178,146.512711 
	C146.245178,151.581253 146.245178,156.616684 146.245178,161.692062 
	C144.104065,161.925110 142.323608,162.118912 140.232803,162.346497 
	C140.232803,165.548965 140.232803,168.591034 140.232803,171.641861 
	C148.766510,171.641861 156.957199,171.641861 165.227905,171.641861 
	C165.227905,168.314758 165.227905,165.398666 165.227905,162.396606 
	C163.006607,162.089859 161.110550,161.828018 159.303253,161.578445 
	C159.303253,156.181458 159.303253,151.139435 159.303253,146.525757 
	C161.580673,145.829117 163.403915,145.271393 165.483566,143.904602 
z"/>
<path fill="#F8F8F8" opacity="1.000000" stroke="none" 
	d="
M113.438179,105.298935 
	C114.402527,107.788513 115.230591,109.907326 116.175240,112.324455 
	C117.335510,111.705261 118.463257,111.480354 118.617973,110.963936 
	C120.707077,103.990936 123.460037,97.085556 124.426750,89.943901 
	C125.423515,82.580284 124.867760,74.968048 124.566780,67.481651 
	C124.386353,62.993656 126.077332,61.562405 130.380661,61.878036 
	C134.524231,62.181950 138.715927,62.108330 142.870773,61.894833 
	C146.390564,61.713974 147.614838,63.305672 147.692108,66.586807 
	C148.096939,83.772385 147.963150,100.601372 140.014389,116.797852 
	C132.750168,131.599457 133.597427,132.015289 116.915253,132.015244 
	C113.415947,132.015244 109.891022,131.748093 106.423706,132.081070 
	C101.899864,132.515518 99.283707,130.919037 97.857635,126.492622 
	C96.330162,121.751442 94.616318,116.978516 92.253342,112.615028 
	C84.256157,97.847397 86.336121,81.872086 86.158669,66.146873 
	C86.122711,62.960121 87.724625,61.786156 90.863220,61.901699 
	C95.522629,62.073223 100.201904,62.122875 104.856018,61.890263 
	C108.658043,61.700237 109.937660,63.513187 109.920036,66.942528 
	C109.892632,72.274643 110.136627,77.618210 109.866158,82.936607 
	C109.479408,90.541519 110.377068,97.875046 113.438179,105.298935 
z"/>
<path fill="#F4F4F4" opacity="1.000000" stroke="none" 
	d="
M94.964401,172.049042 
	C87.163399,173.383743 89.600792,167.536102 88.736748,163.530762 
	C86.531281,163.432724 84.325996,163.334702 81.570694,163.212219 
	C81.317833,166.083069 81.092789,168.637985 80.830589,171.614792 
	C77.170891,171.614792 73.623726,171.614792 69.635033,171.614792 
	C68.695061,162.182739 68.951294,152.975159 72.980858,143.977783 
	C77.410019,134.088165 74.416405,135.824005 84.808464,135.811172 
	C96.469017,135.796783 93.061607,134.198013 97.775696,144.562454 
	C101.751419,153.303543 101.381058,162.290588 100.909882,172.049072 
	C98.967865,172.049072 97.192291,172.049072 94.964401,172.049042 
M88.069977,152.780609 
	C87.386742,150.416397 86.703506,148.052170 86.020279,145.687958 
	C85.453194,145.684982 84.886116,145.682007 84.319038,145.679031 
	C83.460587,148.023788 82.602135,150.368546 81.554718,153.229431 
	C84.045731,153.229431 85.672661,153.229431 88.069977,152.780609 
z"/>
<path fill="#F6F6F6" opacity="1.000000" stroke="none" 
	d="
M132.387955,137.200607 
	C136.521683,141.611954 138.265778,152.961472 135.014145,157.403885 
	C133.392456,159.619461 130.118088,161.009109 127.314438,161.858749 
	C124.915932,162.585587 122.122482,162.009155 119.208832,162.009155 
	C119.005219,165.426498 118.831551,168.341232 118.634941,171.641022 
	C114.864120,171.641022 111.307030,171.641022 107.278816,171.641022 
	C107.278816,160.082581 107.278816,148.381851 107.278816,135.311829 
	C115.444328,135.875778 123.736427,136.448456 132.387955,137.200607 
M124.085060,146.189316 
	C122.409149,146.097260 120.733246,146.005188 119.062424,145.913406 
	C119.062424,148.268280 119.062424,149.989136 119.062424,151.691803 
	C123.640381,152.804337 125.786453,151.621948 124.085060,146.189316 
z"/>
<path fill="#F4F4F4" opacity="1.000000" stroke="none" 
	d="
M165.355362,144.309143 
	C163.403915,145.271393 161.580673,145.829117 159.303253,146.525757 
	C159.303253,151.139435 159.303253,156.181458 159.303253,161.578445 
	C161.110550,161.828018 163.006607,162.089859 165.227905,162.396606 
	C165.227905,165.398666 165.227905,168.314758 165.227905,171.641861 
	C156.957199,171.641861 148.766510,171.641861 140.232803,171.641861 
	C140.232803,168.591034 140.232803,165.548965 140.232803,162.346497 
	C142.323608,162.118912 144.104065,161.925110 146.245178,161.692062 
	C146.245178,156.616684 146.245178,151.581253 146.245178,146.512711 
	C139.385986,144.852951 139.385986,144.852951 140.249222,136.158539 
	C148.400101,136.158539 156.602371,136.158539 165.483566,136.158539 
	C165.483566,138.744858 165.483566,141.324722 165.355362,144.309143 
z"/>
<path fill="#242424" opacity="1.000000" stroke="none" 
	d="
M87.684784,153.005020 
	C85.672661,153.229431 84.045731,153.229431 81.554718,153.229431 
	C82.602135,150.368546 83.460587,148.023788 84.319038,145.679031 
	C84.886116,145.682007 85.453194,145.684982 86.020279,145.687958 
	C86.703506,148.052170 87.386742,150.416397 87.684784,153.005020 
z"/>
<path fill="#202020" opacity="1.000000" stroke="none" 
	d="
M124.345451,146.521790 
	C125.786453,151.621948 123.640381,152.804337 119.062424,151.691803 
	C119.062424,149.989136 119.062424,148.268280 119.062424,145.913406 
	C120.733246,146.005188 122.409149,146.097260 124.345451,146.521790 
z"/>
</svg>